<?xml version="1.0" encoding="UTF-8" standalone="no"?>
<!-- Created with Inkscape (http://www.inkscape.org/) -->

<svg
   xmlns:dc="http://purl.org/dc/elements/1.1/"
   xmlns:cc="http://creativecommons.org/ns#"
   xmlns:rdf="http://www.w3.org/1999/02/22-rdf-syntax-ns#"
   xmlns:svg="http://www.w3.org/2000/svg"
   xmlns="http://www.w3.org/2000/svg"
   version="1.1"
   width="800"
   height="545"
   id="svg3071">
  <metadata
     id="metadata3077">
    <rdf:RDF>
      <cc:Work
         rdf:about="">
        <dc:format>image/svg+xml</dc:format>
        <dc:type
           rdf:resource="http://purl.org/dc/dcmitype/StillImage" />
        <dc:title></dc:title>
      </cc:Work>
    </rdf:RDF>
  </metadata>
  <defs
     id="defs3075" />
  <path
     d="m 47.194944,494.92555 0,-10.94099 -1,-0.61803 -1,-0.61803 0,-26.94099 0,-26.94098 0.9877,0 0.9877,0 0.2623,-76.41296 0.2623,-76.41297 -1.24954,-0.83703 -1.24955,-0.83704 -0.0571,-26.48112 -0.0571,-26.48112 1.05664,-0.35221 1.05663,-0.35222 0,-28.35765 0,-28.35765 -1,-0.61803 -1,-0.61803 0,-26.94099 0,-26.94098 0.98312,0 0.98312,0 0.26688,-25.749997 0.26688,-25.75 3.5,-0.5 c 1.925,-0.275 129.837516,-0.385925 284.250016,-0.246501 l 280.75,0.2535 0,41.889509 0,41.889509 1.5,0.57561 1.5,0.5756 0,26.56277 0,26.56277 -1.5,0.5756 -1.5,0.57561 0,5.72672 0,5.72672 7.58987,8.16977 7.58987,8.16976 1.06464,-0.65798 1.06464,-0.65799 -0.76375,1.23577 -0.76375,1.23577 2.76227,2.88318 2.76226,2.88318 1.09697,-0.62476 1.09698,-0.62477 -0.72473,0.80172 -0.72473,0.80173 4.04753,4.83433 4.04753,4.83434 1.13175,-0.22574 1.13174,-0.22573 0.0715,1 c 0.0393,0.55 0.89647,2.23364 1.90484,3.74141 l 1.83339,2.74142 0.91539,-0.56575 0.91539,-0.56574 -0.27477,0.84376 -0.27478,0.84376 4.43643,5.26602 4.43643,5.26602 1.24046,-0.47601 1.24045,-0.47601 1.18642,1.42955 1.18642,1.42955 1.1367,-0.64932 1.13669,-0.64931 -0.71711,0.7941 -0.71711,0.79411 5.57986,6.35555 5.57987,6.35555 0.91202,-0.56366 0.91202,-0.56366 -0.27477,1.32433 -0.27483,1.32433 1.32433,-0.27478 1.32433,-0.27477 -0.66042,1.06858 -0.66042,1.06858 1.1994,1.44518 1.19939,1.44519 1.04121,-0.6435 1.0412,-0.6435 -0.59086,0.95602 -0.59085,0.95603 7.93739,8.44848 7.93738,8.44849 -0.52931,1.40546 -0.52931,1.40545 2.20258,2.34455 c 1.21143,1.2895 2.6007,2.34454 3.08729,2.34454 l 0.8847,0 -0.73091,-1.25 -0.73091,-1.25 2.00305,1.75218 2.00304,1.75218 0.75218,-0.75218 0.75219,-0.75218 -0.33334,1.16182 -0.33333,1.16183 7.10969,7.83817 c 3.91033,4.311 8.56817,9.52422 10.35075,11.58493 l 3.24105,3.74676 1.05376,-0.65126 1.05377,-0.65127 -0.64759,1.04782 -0.64758,1.04781 6.03591,6.26503 6.0359,6.26504 -0.30431,1.58018 -0.30432,1.58017 1.51149,1.61099 c 0.83131,0.88604 5.28725,5.94117 9.90208,11.23361 l 8.3906,9.62261 0.88418,-0.54645 0.88417,-0.54645 -0.27477,1.32433 -0.27478,1.32433 1.32433,-0.27478 1.32433,-0.27477 -0.55075,0.89113 -0.55075,0.89113 1.80757,1.63582 1.80757,1.63583 0.82918,-0.75218 0.82917,-0.75218 -0.77699,1.34328 -0.77699,1.34327 4.28232,4.36336 4.28231,4.36337 0.8229,-0.50858 0.82289,-0.50858 -0.44534,1.30194 -0.44534,1.30194 8.46564,9 8.46564,9 -3.25884,3.02725 c -1.79237,1.66499 -7.08385,6.32808 -11.75885,10.36242 l -8.5,7.33517 0.33333,1.13758 0.33334,1.13758 -0.73203,-0.73203 -0.73203,-0.73202 -4.1013,3.70939 -4.10131,3.7094 0.33333,1.02263 0.33334,1.02263 -0.66895,-0.66895 -0.66895,-0.66894 -2.5896,2.16894 c -1.42428,1.19292 -6.33957,5.46825 -10.92286,9.50072 l -8.33327,7.33178 0.56042,0.90677 0.56042,0.90677 -1.45079,-0.55672 -1.45079,-0.55672 -0.83584,1.31818 c -0.45971,0.72499 -0.84273,1.76817 -0.85115,2.31817 -0.008,0.55 -0.46531,1.00689 -1.01531,1.01531 -0.55,0.008 -1.56984,0.37702 -2.26631,0.8191 l -1.26631,0.80379 0.67082,1.08541 0.67082,1.08541 -1.22854,-0.75928 -1.22854,-0.75928 -2.41348,2.26735 -2.41349,2.26736 1.23752,1.58741 1.23751,1.58742 -1.66224,-1.29961 -1.66224,-1.29961 -4.0589,3.73192 -4.05889,3.73193 1.22113,1.56769 1.22114,1.56768 -1.91262,-1.5 -1.91262,-1.5 -0.39053,1.15944 c -0.21479,0.63769 -3.74643,3.93535 -7.8481,7.32814 l -7.45758,6.16869 0.66523,1.07638 0.66524,1.07637 -1.20953,-0.74753 -1.20953,-0.74753 -5.33023,5.0411 -5.33023,5.04111 0.63525,0.71224 0.63525,0.71224 -1.1809,-0.67664 -1.1809,-0.67663 -0.62812,1.01631 -0.62811,1.01631 -116.44099,0 -116.44098,0 7.2e-4,-49.25 7.2e-4,-49.25 -19.94357,0.24054 -19.94358,0.24055 -1.55714,-0.59753 -1.55715,-0.59754 0,-3.30968 0,-3.30967 -0.98128,-0.33334 -0.98128,-0.33333 -0.36749,-4.1008 c -0.20212,-2.25544 -0.76039,-4.73044 -1.2406,-5.5 -0.82392,-1.32037 -1.00414,-1.87451 -1.72318,-5.29832 -0.16161,-0.76951 -0.89171,-2.11951 -1.62245,-3 -0.73073,-0.88048 -1.04851,-1.60088 -0.70616,-1.60088 0.34234,0 -0.19238,-0.81482 -1.18828,-1.81072 -0.99589,-0.99589 -2.56395,-2.88611 -3.48457,-4.20048 l -1.67386,-2.38976 -11.45819,11.37217 c -6.30201,6.25469 -11.37145,11.69991 -11.26543,12.10048 0.10602,0.40057 -0.25723,0.82914 -0.80723,0.95238 -0.55,0.12324 -2.125,1.10353 -3.5,2.17844 l -2.5,1.95436 -0.5,3.67157 -0.5,3.67156 -14.5,0.25089 c -7.975,0.13799 -16.86311,0.36299 -19.75136,0.5 l -5.25137,0.24911 0.001,-0.80902 10e-4,-0.80901 -1,0.61803 -1,0.61803 0,51.44099 7.3e-4,51.44098 -138.5,0 -138.500016,0 0,-10.94098 z m 273.813886,7.44701 1.31387,-0.49228 -0.31387,-3.06403 -0.31387,-3.06403 -129.5,0.0635 c -71.225,0.0349 -130.062516,0.0606 -130.750016,0.0572 l -1.25,-0.006 0,3.33333 c 0,1.83334 0.18745,3.52084 0.41655,3.75 0.59141,0.59158 258.805526,0.0191 260.397336,-0.5773 z M 57.202054,500.08608 c 0.004,-1.49575 0.28546,-5.66574 0.62566,-9.26663 l 0.61855,-6.54708 -4.12566,-0.24343 -4.12566,-0.24343 0,9.37848 0,9.37848 3.5,0.13158 3.5,0.13158 0.007,-2.71955 z m 406.492906,-55.21824 0,-52.9994 -3.75,-9.6e-4 -3.75,-9.5e-4 0,53 0,53 3.75,3.6e-4 3.75,3.5e-4 z m 215.07785,50.07995 -2.79633,-2.91874 0.64723,-1.04724 0.64723,-1.04724 -105.53799,-0.0504 -105.53799,-0.0504 0,4.01638 0,4.01638 107.68709,0 107.68709,0 z m 12.72873,-4.39422 -0.6156,-0.99606 1.08603,0.6712 1.08602,0.6712 11.31848,-10.0939 11.31849,-10.0939 -0.25,-0.92279 -0.25,-0.92279 1.25,0.25 1.25,0.25 -0.27478,-1.32433 -0.27477,-1.32433 1.06858,0.66042 1.06858,0.66042 1.46853,-1.21877 1.46852,-1.21877 -1.26233,-1.61732 -1.26233,-1.61732 1.54001,1.19817 1.54001,1.19817 4.71714,-4.03209 4.71714,-4.03209 -0.66166,-1.07059 -0.66166,-1.07059 1.0162,0.62805 1.0162,0.62804 4.88831,-4.36518 c 2.68857,-2.40085 7.38255,-6.55144 10.43107,-9.22353 3.04852,-2.6721 8.78195,-7.72042 12.74095,-11.2185 l 7.19819,-6.36013 -0.64546,-1.04438 -0.64546,-1.04437 1.08636,0.67141 1.08635,0.6714 8.05077,-7.14052 8.05076,-7.14053 -0.63712,-1.03088 -0.63712,-1.03088 1.22854,0.75928 1.22854,0.75928 2.36758,-2.22423 2.36759,-2.22424 -2.12967,-2.88053 c -2.91017,-3.93621 -1.46893,-4.83272 -22.95866,14.28122 l -19.2949,17.16175 0.2917,1.58825 0.2917,1.58824 -0.8136,-1.18993 -0.81359,-1.18994 -8.9781,7.94295 -8.97811,7.94295 0.27478,1.07131 0.27477,1.07132 -0.83299,-0.51482 -0.83299,-0.51482 -2.94179,2.3457 -2.94178,2.3457 0,1.09479 c 0,0.60213 -0.45,1.15062 -1,1.21886 -1.25965,0.15628 -4.34009,2.57524 -10.97956,8.62186 -2.87111,2.61474 -6.43123,5.77965 -7.91137,7.03315 l -2.69116,2.27907 0.69555,1.12543 0.69556,1.12544 -1.21752,-0.75247 -1.21753,-0.75247 -1.9134,1.73161 -1.91341,1.7316 0.63675,1.11636 0.63674,1.11635 -0.79424,-0.71725 -0.79423,-0.71724 -2.4541,1.93039 c -1.34975,1.06171 -4.26022,3.56212 -6.46771,5.55645 l -4.01362,3.62607 2.79608,2.91848 2.79609,2.91848 3.26663,-3.16614 3.26663,-3.16614 z m -380.30658,-63.12802 0,-65.44099 -0.99375,-0.61417 -0.99374,-0.61416 -9.12714,8.95505 -9.12714,8.95505 0.7754,1.25461 0.77539,1.25461 -1.13864,-0.70372 -1.13863,-0.70371 -3.601,3.601 -3.60101,3.601 -1.25688,-1.04312 -1.25688,-1.04312 -0.81831,0.74133 -0.81832,0.74132 0.67277,-1.17465 0.67278,-1.17465 -2.91495,-3.19147 c -1.60323,-1.7553 -3.91042,-5.27671 -5.1271,-7.82535 -1.21668,-2.54863 -2.90033,-5.93797 -3.74145,-7.53186 l -1.52931,-2.89799 1.1325,0.69992 1.1325,0.69993 -0.49953,-1.30194 -0.49953,-1.30194 -103.48901,0.25924 -103.489036,0.25923 0,33.40743 0,33.40743 1.25,0.42072 1.25,0.42071 -1.16991,1.41858 -1.16991,1.41859 -0.11185,17.94247 -0.11186,17.94246 0.59906,-0.59905 c 0.32948,-0.32948 4.64833,-7.4907 9.59744,-15.91382 l 8.99839,-15.31478 -1.75681,-1.2846 c -0.96624,-0.70654 -2.6083,-1.28461 -3.64901,-1.28461 l -1.8922,0 0.39044,-1.17133 0.39044,-1.17132 2.14651,-0.15814 2.14651,-0.15814 -0.61766,0.9994 -0.61767,0.99941 1.58129,-0.6068 1.58129,-0.6068 0.59519,1.55106 0.5952,1.55106 2.39627,-0.45808 2.39626,-0.45807 -0.60165,1.59387 c -0.33091,0.87664 -1.45928,3.05638 -2.50748,4.84388 l -1.90583,3.25 0.77309,0 c 0.4252,0 -0.15627,1.0125 -1.29216,2.25 -1.13589,1.2375 -3.49693,4.60274 -5.24674,7.4783 l -3.18149,5.22831 0.72694,1.1762 0.72693,1.17621 -0.958,-0.59208 -0.95801,-0.59208 -3.3575,6.18757 c -1.84662,3.40316 -4.13051,7.31257 -5.0753,8.68757 l -1.7178,2.5 -0.14255,7.75 -0.14255,7.75 125.021356,0 125.02135,0 z m -244.250016,4.72473 -2.75,-0.41659 0,-1.4022 0,-1.40219 1.588,0.60937 c 0.8734,0.33516 2.52363,0.65853 3.66717,0.71862 l 2.07918,0.10924 0.41616,1.25 0.41616,1.25 -1.33333,-0.14983 c -0.73334,-0.0824 -2.57084,-0.3373 -4.08334,-0.56642 z m 254.239206,-31.34368 -0.004,-91.05994 -3.54404,0.30994 -3.54404,0.30993 -0.19871,90.74995 -0.1987,90.74996 3.74645,4e-5 3.74644,5e-5 -0.004,-91.05993 z m 366.64999,80.46804 7.36527,-6.59189 -0.65673,-1.06262 -0.65674,-1.06262 1.19832,0.7406 1.19831,0.7406 1.44518,-1.1994 1.44519,-1.19939 -0.56332,-0.91147 -0.56332,-0.91147 0.95317,0.27477 0.95317,0.27478 3.61486,-2.85568 3.61486,-2.85569 -0.65402,-1.14431 -0.65403,-1.14432 0.79911,0.72212 0.79911,0.72211 3.11121,-2.58209 c 2.79055,-2.31596 9.53471,-8.28809 22.30114,-19.74825 l 4.32905,-3.8861 -1.25948,-1.6139 -1.25949,-1.61389 1.77932,1.39677 1.77931,1.39678 2.43986,-2.29214 2.43987,-2.29213 -0.62369,-1.00915 -0.62369,-1.00915 1.0259,0.63404 1.0259,0.63404 7.37861,-6.34249 c 4.05824,-3.48837 9.62861,-8.49892 12.37861,-11.13456 l 5,-4.79207 -0.27478,-0.9193 -0.27477,-0.9193 0.9764,0.60345 0.97641,0.60346 3.04979,-2.77913 3.04979,-2.77912 -9.53994,-10.5 -9.53994,-10.5 -0.96148,0.25 -0.96148,0.25 0.25,-1.25 0.25,-1.25 -1.25,0.25 -1.25,0.25 0.25,-0.9 0.25,-0.9 -3.87508,-4.58172 -3.87507,-4.58171 -0.8997,0.55604 -0.8997,0.55605 0.27477,-1.32433 0.27478,-1.32433 -1.5,0.33333 -1.5,0.33334 0.72045,-0.72046 0.72046,-0.72045 -2.04692,-2.87464 -2.04692,-2.87464 -1.17354,0.67209 -1.17353,0.67208 0.76758,-0.84458 0.76759,-0.84457 -3.21375,-3.31575 -3.21375,-3.31575 -1.30384,0 -1.30383,0 0,1.61663 0,1.61663 -1.92055,-0.50223 -1.92055,-0.50224 0.33912,1.76092 0.33912,1.76092 -1.66857,-0.12531 c -0.91771,-0.0689 -1.96785,-0.54003 -2.33363,-1.0469 l -0.66506,-0.92158 3.66506,-1.9307 c 2.01578,-1.06189 4.05055,-2.29267 4.52171,-2.73507 l 0.85664,-0.80436 -4.22244,-4.58081 -4.22244,-4.5808 -1.03871,0.64196 -1.03872,0.64196 0.63096,-1.02091 0.63096,-1.02092 -7.10998,-7.88359 c -3.91049,-4.33598 -7.49989,-8.3111 -7.97645,-8.8336 l -0.86647,-0.95 0,2.25902 0,2.25901 1.15451,-0.71352 1.15451,-0.71353 -0.69155,1.11895 -0.69155,1.11895 2.48767,11.28556 c 1.36822,6.20706 2.78497,12.97306 3.14833,15.03556 l 0.66066,3.75 0.94773,0 0.94772,0 -0.52875,0.85554 -0.52876,0.85555 2.48452,-0.47495 c 1.36648,-0.26122 2.72942,-0.87121 3.02875,-1.35554 0.29934,-0.48433 0.93972,-0.8806 1.42308,-0.8806 l 0.87883,0 -0.13182,1.75 -0.13182,1.75 -2.05603,0.12728 c -1.13082,0.07 -2.95603,0.38965 -4.05603,0.71034 -1.1,0.32069 -2.91471,0.85283 -4.03269,1.18253 l -2.03269,0.59946 -0.13843,-1.8377 c -0.14982,-1.98883 -4.15313,-20.5915 -7.37751,-34.28191 -1.10106,-4.675 -2.19096,-9.33216 -2.422,-10.34923 l -0.42007,-1.84924 -3.7883,-4.30657 -3.78831,-4.30657 -1.38976,-0.0942 -1.38975,-0.0942 -1.27849,1.74843 -1.27848,1.74843 -0.81682,-0.81683 -0.81682,-0.81682 2.48506,-1.90937 2.48506,-1.90937 -1,-0.14066 c -0.55,-0.0774 -1.3375,-0.0874 -1.75,-0.0222 l -0.75,0.1184 0.25,-1.25 0.25,-1.25 -1.32433,0.27478 -1.32433,0.27477 0.6791,-1.0988 0.6791,-1.09881 -2.25013,-2.39515 -2.25013,-2.39515 -0.87942,0.54351 -0.87941,0.54351 0.27477,-1.32433 0.27478,-1.32433 -1.32433,0.27478 -1.32433,0.27477 0.61793,-0.99982 0.61792,-0.99983 -4.15939,-4.5124 -4.15939,-4.5124 -0.87275,0.53939 -0.87275,0.53939 0.51428,-1.3402 0.51428,-1.34019 -2.89976,-2.77814 -2.89975,-2.77814 0.48837,2.55474 0.48837,2.55474 0.87419,-0.54028 0.8742,-0.54029 -0.54635,1.42378 -0.54636,1.42378 2.50844,11.37816 c 1.37965,6.25799 2.80574,13.06566 3.1691,15.12816 l 0.66066,3.75 1.88871,0 1.88871,0 0,-0.78189 0,-0.78189 2.5,-0.20691 2.5,-0.20691 0,0.9888 c 0,0.54384 -0.45,1.04505 -1,1.1138 -2.02509,0.25314 -2.5311,0.42546 -4,1.36219 -1.6275,1.03788 -2.47815,1.30946 -5.43327,1.73465 l -1.93326,0.27816 -2.2653,-10.5 c -1.24591,-5.775 -3.48607,-16.33989 -4.97812,-23.47753 l -2.71282,-12.97752 -2.28045,-2.52248 c -1.25425,-1.38736 -4.15873,-4.65432 -6.45441,-7.25992 l -4.17396,-4.73745 -1.03871,0.64196 -1.03872,0.64196 0.73592,-1.19075 0.73592,-1.19074 -4.23337,-4.21377 c -2.32835,-2.31757 -4.59879,-4.10666 -5.04542,-3.97576 l -0.81205,0.23801 0.53218,-1.38686 0.53219,-1.38685 -1.22268,-0.75566 -1.22269,-0.75566 0.67082,1.08541 0.67082,1.08541 -0.92852,0.57386 -0.92853,0.57387 0.25367,-1.7284 0.25368,-1.72839 -13.45239,-14.77637 -13.45238,-14.77637 -69.38908,0 -69.38907,0 0,25.5 0,25.5 -7.61658,0 -7.61657,0 0.47123,-2.46511 0.47124,-2.46512 -1.10466,-0.40988 -1.10466,-0.40989 1.375,-1.375 1.375,-1.375 0.39941,1.07322 0.39941,1.07323 2.97559,-0.43672 2.97559,-0.43673 0,-28.3865 0,-28.3865 70.25,-0.11535 c 38.6375,-0.0634 70.925,-0.17594 71.75,-0.25 l 1.5,-0.13465 0.0947,-6.21305 0.0947,-6.21304 -0.97444,0.60224 -0.97445,0.60224 0.48714,-1.38919 0.48715,-1.3892 -1.95354,-2.78937 c -1.07445,-1.53415 -3.20542,-5.13415 -4.73549,-8 -1.53008,-2.86584 -4.33963,-7.79532 -6.24345,-10.95439 l -3.46149,-5.74377 -0.82076,0.74377 -0.82075,0.74376 0.73061,-1.26824 0.73062,-1.26823 -2.2777,-3.73177 c -1.25273,-2.05247 -2.63436,-3.88176 -3.07029,-4.06509 -0.43589,-0.18334 -0.79256,-0.98197 -0.79256,-1.77475 l 0,-1.44142 2.75,-1.03655 c 1.5125,-0.5701 3.95047,-1.63099 5.4177,-2.35755 l 2.6677,-1.321 1.22901,1.1323 1.229,1.1323 -0.70572,-1.25 -0.70572,-1.25 0.80901,-0.0378 c 0.44496,-0.0208 2.49652,-0.28248 4.55902,-0.58158 l 3.75,-0.54381 0,0.90337 0,0.90337 -6.45472,1.34697 -6.45471,1.34697 0.60922,0.98575 0.60923,0.98575 -0.95226,-0.58853 -0.95225,-0.58852 -1.26083,0.77923 -1.26083,0.77924 6.41941,10.90478 c 3.53067,5.99763 7.79746,13.36004 9.48176,16.36091 l 3.06237,5.45612 0.10671,-18.70612 0.10672,-18.70613 -1.02991,0 -1.02991,0 0,-1.55902 0,-1.55901 1,0.61803 1,0.61803 0,-35.55901 0,-35.558987 -18,0 -18,0 0,15.393011 0,15.393006 -1.58179,0.60699 -1.58178,0.60699 -62.41822,0 -62.41821,0 0,27.9433 0,27.94329 -2.22251,1.55671 -2.2225,1.5567 -13.7775,0 -13.77749,0 0,48.38342 0,48.38343 2.46267,0.47076 2.46266,0.47077 2.28734,-2.59703 2.28733,-2.59704 -2.5,1.99284 -2.5,1.99285 1.91054,-2.25613 1.91053,-2.25613 0.53514,0.53514 0.53514,0.53513 6.75541,-6.70364 6.75541,-6.70365 -0.60559,-0.97987 -0.6056,-0.97987 0.99606,0.6156 0.99606,0.6156 3.22585,-3.32824 3.22585,-3.32823 -1.5674,-0.60147 -1.5674,-0.60147 0,-1.07081 0,-1.07081 1.5952,1.28942 c 4.80208,3.8816 10.4048,10.234 10.4048,11.79704 l 0,0.99239 -1.09362,0 -1.09362,0 -0.50492,-1.93083 -0.50492,-1.93082 -1.46484,-0.56211 -1.46484,-0.56211 0.62239,-1.00707 0.6224,-1.00706 -1.34053,0 -1.34053,0 -13.63844,13.80561 -13.63844,13.8056 1.66996,1.21482 1.66995,1.21481 -2.18426,-1.02042 -2.18426,-1.02042 -26.95875,0 -26.95875,0 -0.49575,1.29189 -0.49574,1.29189 1.27638,1.74557 1.27639,1.74556 1.22953,-0.28745 1.22954,-0.28746 0.3078,1.84163 c 0.16929,1.0129 0.55569,2.08952 0.85867,2.3925 l 0.55087,0.55087 1.77416,-1.3925 1.77417,-1.3925 -1.23751,1.58742 -1.23752,1.58741 2.23752,2.10204 c 1.23063,1.15612 2.68751,2.15879 3.23751,2.22816 l 1,0.12612 -0.3069,1.49133 -0.30691,1.49133 1.80691,-0.30691 1.8069,-0.3069 -0.20575,1.11726 -0.20575,1.11725 2.67549,2.38275 2.67549,2.38274 -1.46974,-1.94196 -1.46974,-1.94196 1.41994,0.85601 1.41994,0.856 -0.65849,-1.71598 -0.65848,-1.71599 0.99203,0.61311 0.99203,0.61311 -0.51775,2.93883 -0.51774,2.93883 0.81426,0 c 0.44784,0 1.44506,-0.5625 2.21603,-1.25 l 1.40177,-1.25 -1.32421,1.75 -1.32422,1.75 0.87245,0.11842 c 0.47984,0.0651 1.11351,0.0973 1.40815,0.0714 0.29465,-0.0258 0.53572,0.79628 0.53572,1.82695 l 0,1.87395 -2.32661,0.58394 -2.32662,0.58394 0.55542,0.89869 0.55542,0.89869 -2.02904,0.64402 -2.02904,0.64399 0.58885,0.95278 0.58885,0.95278 -0.82433,-0.23723 c -0.45338,-0.13047 -1.84943,0.33096 -3.10234,1.0254 l -2.27801,1.26263 0.57995,0.93837 0.57995,0.93837 -1.56468,-0.60042 -1.56467,-0.60042 -1.44346,1.19796 -1.44346,1.19797 -1.04381,-0.64511 -1.0438,-0.6451 0,0.93401 0,0.93402 -3,0.6 -3,0.6 0,4.525 0,4.525 -16,0 -16,0 0,35.05471 0,35.05471 22.39476,-0.18533 22.39476,-0.18533 12.84081,-12.86938 c 13.80764,-13.83836 13.90496,-13.90891 14.89262,-10.79706 l 0.65773,2.07232 1.4616,-0.56086 1.4616,-0.56087 -0.61096,0.98854 -0.61095,0.98855 1.11803,0 1.11803,0 -0.61803,1 -0.61803,1 0.80901,0.006 c 0.6699,0.005 4.30535,5.26959 4.82969,6.99368 0.53405,1.75604 1.76126,4.75462 2.55233,6.23643 0.50985,0.95504 0.927,2.36505 0.927,3.13337 l 0,1.39694 2.25,0.60297 2.25,0.60298 22.73087,0.0137 22.73087,0.0136 0.26913,-22.25 0.26913,-22.25 3.25,-0.31336 3.25,-0.31336 0,72.06336 0,72.06336 107.13695,0 107.13695,0 7.36528,-6.59189 z m -8.48113,-168.28926 -1.34195,-0.85053 2.59195,-0.49548 2.59195,-0.49549 0,1.36133 0,1.36133 -1.25,-0.0153 c -0.6875,-0.008 -1.85388,-0.39806 -2.59195,-0.86586 z m -229.69917,-57.18537 -0.65915,-1.06653 0.5336,-0.53361 0.53361,-0.5336 1.06653,0.65915 c 1.31822,0.81471 1.40352,2.54112 0.12555,2.54112 -0.51754,0 -1.2376,-0.47994 -1.60014,-1.06653 z m -1.46802,-4.44448 -1.23575,-1.48899 0.77743,0 0.77744,0 -1.72014,-1.90072 -1.72013,-1.90073 1.13168,-0.69941 c 1.33229,-0.8234 1.25224,-0.90292 3.26363,3.24196 l 1.57281,3.24109 -0.80561,0.4979 -0.80561,0.49789 z m -391.751706,226.261 1.69397,-3.25 0.0639,-18.84129 c 0.0351,-10.36271 0.10346,-19.13771 0.15185,-19.5 0.0484,-0.36229 0.0347,-1.44621 -0.0304,-2.40871 l -0.11842,-1.75 -5,0 -5,0 0,24.5 0,24.5 3.2726,0 3.2726,0 1.69397,-3.25 z m 1.76083,-125.25 0,-76.5 -4,0 -4,0 0,76.5 0,76.5 4,0 4,0 z m 721.579646,46.84691 -0.55672,-1.45079 1.03235,0.63803 1.03235,0.63803 1.45393,-1.20665 1.45393,-1.20666 -3.1683,-3.62943 c -1.74257,-1.99619 -6.33278,-7.08711 -10.20047,-11.31316 l -7.03217,-7.68372 -0.95177,0.58823 -0.95178,0.58823 0.58185,-0.94145 0.58184,-0.94144 -3.99556,-4.46307 c -2.19756,-2.45468 -7.42792,-8.17538 -11.62303,-12.71266 l -7.62747,-8.24961 -2.8084,2.69062 -2.80839,2.69061 2.65711,2.77343 2.65712,2.77343 1.00148,-0.61895 1.00149,-0.61895 -0.71645,1.15925 -0.71646,1.15924 7.26862,7.94618 7.26862,7.94619 1.54333,-1.20092 1.54332,-1.20092 -1.2096,1.55379 -1.2096,1.55378 2.24772,2.44622 c 1.23625,1.34541 5.9763,6.61473 10.53343,11.7096 l 8.28571,9.26338 0.95095,-0.58771 0.95094,-0.58772 -0.14319,0.82433 c -0.0788,0.45338 -0.0899,1.18839 -0.0248,1.63335 l 0.11842,0.80901 1.06817,-0.66016 1.06818,-0.66017 -0.55672,-1.45079 z m -415.57963,-2.40593 0,-3.05901 -0.98855,0.61095 -0.98854,0.61096 0.57878,-1.50829 0.57879,-1.50829 -19.09024,0.006 -19.09024,0.006 0,3.95067 0,3.95067 19.5,0 19.5,0 0,-3.05902 z m 89,-0.9753 0,-4.03431 -20,0.11039 -20,0.1104 0,3.92392 0,3.92392 20,0 20,0 z m 10.04062,-27.84894 0.11674,-20.29271 -0.57868,-0.57868 -0.57868,-0.57868 0,21.33333 c 0,11.73333 0.20787,21.12546 0.46194,20.87139 0.25407,-0.25406 0.51447,-9.59366 0.57868,-20.75465 z m -177.98679,11.32772 c 1.89539,-1.95555 3.33367,-3.86805 3.19617,-4.25 -0.1375,-0.38195 0.14439,-0.69446 0.62641,-0.69446 0.48203,0 4.28974,-3.33345 8.46158,-7.40767 l 7.58516,-7.40766 -0.61608,-0.99684 -0.61609,-0.99685 1.03376,0.6389 1.03376,0.6389 2.60261,-2.60262 2.60261,-2.60261 0.26814,-23.13177 0.26814,-23.13178 6,0 6,0 0.31955,2.25 0.31955,2.25 12.43045,0 12.43045,0 0,-1.9459 0,-1.9459 4.5,0.26509 4.5,0.26508 0,-0.81918 0,-0.81919 1.53324,0 c 0.84329,0 3.76829,-1.13258 6.5,-2.51685 l 4.96676,-2.51684 0,-0.95177 0,-0.95177 1.5,0.5756 1.5,0.57561 0,-1.24675 c 0,-0.68571 0.69249,-1.75311 1.53886,-2.37199 l 1.53887,-1.12525 -11.75256,-11.69824 -11.75257,-11.69824 -0.828,1.21324 -0.828,1.21325 0.26782,-1.5 0.26782,-1.5 -1.97274,-3.3025 -1.97274,-3.3025 -9.50338,0.11451 c -5.22686,0.063 -10.04001,0.0866 -10.69588,0.0525 l -1.1925,-0.062 -0.3075,-4.25 -0.3075,-4.25 -2.45781,-0.12343 -2.45781,-0.12343 -0.3776,-1.1328 -0.3776,-1.1328 -0.84758,0.52383 -0.84758,0.52383 -4.7871,-2.67261 c -2.63291,-1.46994 -6.15057,-3.95077 -7.81702,-5.51297 -1.66644,-1.5622 -3.3674,-2.84245 -3.7799,-2.84499 -0.4125,-0.003 -0.75,-0.62453 -0.75,-1.38219 l 0,-1.37755 1.48899,-1.23575 1.48899,-1.23575 -0.64932,-1.1367 -0.64931,-1.13669 0.8513,0.77431 0.8513,0.7743 4.76411,-4.69247 4.76411,-4.69247 -0.61541,-1.08184 -0.61541,-1.08183 0.82917,0.75218 0.82918,0.75218 1.80757,-1.63583 1.80757,-1.63582 -0.63675,-1.11636 -0.63674,-1.11635 0.82917,0.75218 0.82918,0.75218 1.80757,-1.63583 1.80757,-1.63582 -0.63093,-1.02087 -0.63093,-1.02086 1.02086,0.63093 1.02087,0.63093 1.78738,-1.97504 1.78738,-1.97504 -0.22587,-7.73584 -0.22588,-7.73584 -0.99069,-1.19371 -0.99068,-1.1937 1.5114,-2.92274 1.51141,-2.92274 -1.51093,-2.15716 -1.51093,-2.15716 2.1853,-3.06898 2.18531,-3.06898 0.95915,0.95915 0.95914,0.95914 -1.27637,2.04381 -1.27638,2.0438 1.20363,2.64169 1.20364,2.64169 -1.4618,2.08701 -1.4618,2.08701 0.98762,1.8454 0.98763,1.84539 14.96481,0 14.96482,0 0,-6.5 0,-6.5 -2,0 -2,0 0,2 0,2 -1,0 -1,0 -0.13618,-2.25 -0.13618,-2.25 -0.43337,2.25 -0.43337,2.25 -0.93045,0 -0.93045,0 -0.13618,-2.25 -0.13618,-2.25 -0.44093,2.30763 -0.44092,2.30763 -1.17289,-0.39082 -1.1729,-0.39082 -0.0465,-2.66681 -0.0465,-2.66681 1.54646,-0.12795 c 0.85056,-0.0704 3.03012,-0.0791 4.84346,-0.0195 l 3.29699,0.1085 -0.60111,-0.97263 -0.60111,-0.97262 1.02371,-1.75792 1.02371,-1.75792 0.0304,1.25 0.0304,1.25 1,0 1,0 0,-10.52673 0,-10.52674 -14.64256,0.27674 -14.64256,0.27673 -1.01658,1.61408 -1.01659,1.61407 0.83074,1.88593 c 0.45691,1.03725 0.88652,2.86811 0.95467,4.06856 l 0.12392,2.18264 -0.72642,-0.44895 -0.72642,-0.44895 -0.6553,1.06028 -0.65529,1.06029 1.58619,2.42084 c 1.92133,2.93232 1.96965,3.49121 0.30181,3.49121 l -1.28439,0 -1.77223,-3.00013 -1.77222,-3.00013 1.54071,-2.19967 1.54071,-2.19967 -1.50715,-2.3002 -1.50715,-2.3002 1.53102,-2.33662 1.53101,-2.33662 -9.00796,0.28109 -9.00796,0.28109 -0.0836,-0.69447 c -0.046,-0.38196 -0.21825,-2.71947 -0.38279,-5.19447 -0.16455,-2.475 -0.46442,-5.175 -0.66638,-6 l -0.36721,-1.5 2,0.33113 c 4.53895,0.7515 7.21861,1.01057 11.25,1.08763 l 4.25007,0.0813 0,2 0,2 20.75,6.1e-4 20.75,6.1e-4 -0.28056,-28.67949 -0.28055,-28.679491 -1.59804,2.281522 -1.59805,2.281529 -48.3714,-0.35423 -48.3714,-0.35423 0,24.19257 0,24.19257 1.06301,0.65697 1.06302,0.65698 1.9134,-1.73161 1.91341,-1.7316 -0.63675,-1.11636 -0.63674,-1.11635 0.86079,0.78379 0.86078,0.7838 11.23866,-11.20677 11.23865,-11.20677 1.58611,1.31636 1.58612,1.31635 -1.52741,1.68777 -1.52741,1.68777 0.75218,0.82918 0.75218,0.82917 -1.17705,-0.67426 -1.17705,-0.67425 -4.74897,4.68173 c -2.61193,2.57495 -4.10726,4.30908 -3.32295,3.85361 l 1.42602,-0.82813 -0.83333,0.91032 c -0.45834,0.50068 -1.21269,0.91033 -1.67634,0.91033 -0.46365,0 -4.22568,3.43797 -8.36006,7.63994 -4.13438,4.20197 -7.72644,7.43056 -7.98235,7.17464 -0.25592,-0.25591 -0.77032,0.49571 -1.14312,1.67029 l -0.67781,2.13559 -2.16349,-0.17092 c -1.18993,-0.094 -2.3885,-0.0637 -2.6635,0.0674 -0.275,0.13108 -1.4,0.35667 -2.5,0.50132 -1.1,0.14466 -2.7875,0.58537 -3.75,0.97937 l -1.75,0.71636 0,-1.72362 0,-1.72362 1.999,0.52275 1.99901,0.52275 0.52322,-0.84658 0.52321,-0.84659 4e-5,-42.80953 3e-5,-42.809547 -99.52225,-0.254829 -99.522276,-0.25483 0,21.451254 0,21.451252 3.6546,6.30357 c 2.01003,3.46697 4.59683,7.65358 5.74845,9.30358 1.15162,1.65 2.09482,3.225 2.096,3.5 10e-4,0.275 2.63579,5.11038 5.85468,10.74528 l 5.85252,10.24529 0.8834,-0.54598 0.88341,-0.54597 -0.8107,2.19153 -0.8107,2.19152 -3.92583,1.53886 c -2.1592,0.84637 -4.15083,1.79549 -4.42583,2.10916 -0.275,0.31367 -1.175,0.61915 -2,0.67885 -0.825,0.0597 -3.4662,0.44582 -5.86935,0.85806 l -4.36935,0.74953 0.43989,-1.3197 0.4399,-1.31969 4.17945,-0.0384 4.17944,-0.0384 1e-5,-0.75 c 1e-5,-0.4125 0.62358,-0.75 1.38571,-0.75 0.76213,0 2.51685,-0.58685 3.89937,-1.30411 l 2.51369,-1.30412 -0.96084,-1.71692 -0.96084,-1.71691 -1.09304,0.67554 -1.09305,0.67554 0.69537,-1.12514 0.69538,-1.12514 -1.50388,-2.90819 -1.50389,-2.90819 -1.60036,-0.61412 -1.60037,-0.61411 0.6209,-1.00464 0.62089,-1.00463 -3.29114,-5.50243 c -1.81013,-3.02628 -3.66257,-5.50237 -4.11653,-5.50237 l -0.82539,0 0.47451,-0.76777 0.4745,-0.76777 -2.41036,-3.98223 -2.41037,-3.98223 -0.005,19.16667 -0.005,19.16666 1.25,0.58334 1.25,0.58333 -1.25,0.58333 -1.25,0.58334 0,19.41666 0,19.41667 99.926696,0 99.92667,0 0.32333,-1.65225 0.32332,-1.65225 -6.5,-6.45985 -6.5,-6.45985 -1.5,-0.23323 -1.5,-0.23323 -0.0454,-1.40467 -0.0455,-1.40467 -1.27887,0.27478 -1.27888,0.27477 0.58146,-0.94081 0.58145,-0.94082 -4.00712,-3.92796 -4.00713,-3.92797 0,-1.26208 0,-1.26207 2.46473,-1.93876 c 1.3556,-1.06631 2.72998,-1.89884 3.05418,-1.85004 0.3242,0.0488 1.45269,-0.94354 2.50776,-2.20517 l 1.91831,-2.29387 -0.18137,2.63846 -0.18136,2.63846 -1.10422,-0.42373 -1.10422,-0.42372 -1.85138,2.04574 -1.85137,2.04575 2.30983,2.4587 2.30983,2.4587 1.10464,-0.62951 1.10464,-0.6295 -0.77034,0.84733 -0.77034,0.84733 3.68284,3.77158 3.68285,3.77158 0.992,-0.6131 0.99201,-0.61309 -0.61895,1.00149 -0.61895,1.00148 2.78377,2.66703 2.78378,2.66702 0.68066,-0.514 0.68066,-0.514 -0.52034,0.68701 -0.52034,0.687 3.77034,3.86047 3.77034,3.86047 0.5,56.54927 0.5,56.54928 -0.64908,1.04897 -0.64907,1.04896 -1.60093,-0.61433 -1.60092,-0.61433 0,0.96861 0,0.96862 -2.44098,0 -2.44099,0 -0.67188,1.08713 -0.67189,1.08713 -1.07046,-1.07046 -1.07047,-1.07047 0.59171,-0.5917 c 0.49444,-0.49445 2.11798,-0.9586 4.77496,-1.36511 0.275,-0.0421 0.40416,-21.789 0.28703,-48.32651 l -0.21298,-48.25001 -99.43852,-0.25482 -99.438546,-0.25481 0.0381,6.08994 0.0381,6.08995 5.90102,10.16487 5.90102,10.16487 0.92643,-0.238 0.92643,-0.23801 -0.54157,1.41131 -0.54157,1.41132 2.10557,1.12686 2.10557,1.12687 -0.60122,0.97278 -0.60121,0.97279 4.09426,7.1014 4.09426,7.1014 -1.77106,1.36847 c -0.97407,0.75265 -2.89605,1.65891 -4.27105,2.0139 -1.375,0.35498 -2.94209,0.89941 -3.48242,1.20983 -0.54033,0.31042 -1.66533,0.67075 -2.5,0.80073 -1.59383,0.24821 -9.97964,1.22173 -11.26758,1.30807 l -0.75,0.0503 0,40.00895 0,40.00895 99.952446,-0.0275 99.95244,-0.0275 0.53655,-0.86816 0.53656,-0.86817 -1.331,-1.10463 -1.331,-1.10463 -0.65799,0.49133 -0.65799,0.49136 0.52034,-0.68701 0.52034,-0.687 -3.68284,-3.77158 -3.68285,-3.77158 -1.0875,0.61891 -1.08749,0.61891 0.764,-0.84099 0.764,-0.84099 -2.66702,-2.78378 -2.66703,-2.78377 -1.00148,0.61895 -1.00149,0.61895 0.6435,-1.0412 0.6435,-1.04121 -1.331,-1.10463 -1.331,-1.10463 -0.65799,0.49133 -0.65799,0.49132 0.52034,-0.68701 0.52034,-0.687 -3.5841,-3.67045 -3.5841,-3.67045 3.14049,-2.64255 c 1.72726,-1.4534 3.55595,-2.64254 4.06376,-2.64254 l 0.92327,0 0,1.09362 0,1.09362 -2,0.52301 -2,0.52301 0,0.9156 c 0,0.50357 0.87315,1.23859 1.94033,1.63336 1.06719,0.39478 2.04364,1.16778 2.16991,1.71778 0.12626,0.55 3.19061,4.03186 6.80966,7.73746 l 6.5801,6.73747 1.19098,0.0125 c 0.65504,0.007 1.51207,0.53207 1.90451,1.16705 l 0.71353,1.15451 -1.40451,-0.81416 c -0.77248,-0.44779 0.62049,1.22774 3.09549,3.72341 2.475,2.49567 5.14415,5.33593 5.93145,6.31169 l 1.43144,1.77411 0.27499,2.59796 c 0.62106,5.8674 4.01701,15.098 5.55457,15.098 0.44415,0 0.75888,0.3375 0.6994,0.75 -0.0595,0.4125 0.21668,1.75744 0.61369,2.98875 l 0.72184,2.23876 0.81431,-0.50328 0.81432,-0.50327 0.63938,2.01452 c 0.87583,2.75949 1.57924,2.56447 5.55844,-1.54102 z m -42.50309,-59.36236 -0.63254,-1.02347 2.5409,-0.63772 2.5409,-0.63773 0,-0.89159 0,-0.89159 2,0 2,0 0,-0.89301 c 0,-0.49116 0.675,-1.15203 1.5,-1.46862 l 1.5,-0.5756 0,1.44362 0,1.44362 -4.75,2.26515 c -2.6125,1.24583 -5.04626,2.40583 -5.40836,2.57778 -0.3621,0.17195 -0.943,-0.14793 -1.2909,-0.71084 z m 93.36497,-126.48053 1.19859,-1.44422 -1.97153,0.51557 -1.97153,0.51556 -1.02375,-1.9129 -1.02375,-1.91289 0.36162,-1.93135 c 0.19889,-1.06224 0.39605,-2.20644 0.43813,-2.54267 l 0.0765,-0.61133 2.5,0.47791 2.5,0.4779 0.0406,3.13343 0.0406,3.13342 2.87499,-3.36116 2.87499,-3.36116 1.08437,0.67018 1.08437,0.67017 0,2.88197 0,2.88197 -1.19098,0.73606 -1.19099,0.73607 -0.41272,-1.23818 -0.41273,-1.23818 -1.64629,1.40913 c -0.90546,0.77502 -2.49744,1.71283 -3.53773,2.08402 l -1.89145,0.67489 1.1986,-1.44421 z m -88.9004,-30.35157 c 0.008,-0.4125 0.34592,-1.2 0.75,-1.75 l 0.73469,-1 2.85124,-0.30372 2.85124,-0.30372 -0.45498,1.30372 -0.45499,1.30372 -1.64625,-0.29384 -1.64626,-0.29383 0,1.04383 0,1.04384 -1.5,0 -1.5,0 0.0153,-0.75 z m 60.83238,-16 c -0.31715,-1.56161 -0.65908,-2.81971 -1.35588,-4.98875 l -0.71919,-2.23876 -0.67872,0.41948 -0.67873,0.41947 -0.14344,-1.90426 c -0.14452,-1.91849 -1.15895,-3.42852 -4.69896,-6.99463 l -1.92722,-1.94143 0.6341,-0.6341 0.63409,-0.6341 1.42543,0.54699 1.42542,0.54699 1.36686,3.08793 1.36685,3.08793 1.23885,-0.47539 1.23886,-0.47539 -0.10643,0.71401 c -0.0585,0.3927 -0.0531,1.52807 0.012,2.52303 l 0.11842,1.80901 0.85943,-0.53115 0.85943,-0.53116 -0.2709,2.46784 -0.2709,2.46783 0.91147,0.56332 c 0.50131,0.30983 0.91147,1.21177 0.91147,2.00431 l 0,1.44098 -1,0 c -0.55,0 -1.06854,-0.3375 -1.15231,-0.75 z m -94.02138,211.00025 c -27.87053,-0.14767 -73.77053,-0.14771 -102.00001,-9e-5 l -51.326316,0.26841 102.000016,8e-5 102,9e-5 z m 522.17803,-10.63521 3.74675,-3.38496 -3.49017,-4.10322 -3.49017,-4.10321 -1.13537,0.6485 -1.13538,0.6485 0.66895,-0.74594 0.66894,-0.74594 -2.16894,-2.62443 c -1.86419,-2.25566 -7.94435,-8.93629 -15.16895,-16.667 -1.1,-1.17706 -3.2375,-3.61401 -4.75,-5.41545 l -2.75,-3.27534 0,1.13574 0,1.13574 -1.06301,-0.65697 -1.06302,-0.65698 -1.90481,1.72383 -1.9048,1.72382 0.96782,1.8084 c 0.5323,0.99461 0.96782,2.56302 0.96782,3.48535 l 0,1.67696 4.09393,4.88975 4.09393,4.88974 1.15607,-0.66129 1.15607,-0.66129 -0.74132,0.81832 -0.74133,0.81831 1.10463,1.331 1.10463,1.331 1.1367,-0.64932 1.13669,-0.64931 -0.74132,0.81832 -0.74133,0.81831 1.10463,1.331 1.10463,1.331 0.8176,-0.5053 0.81759,-0.5053 0.72361,1.17082 0.72361,1.17082 -1.15451,-0.71353 -1.15451,-0.71352 0,0.84137 c 0,0.46275 2.50625,3.27729 5.56945,6.25453 3.0632,2.97724 6.00403,6.22518 6.53519,7.21764 1.29057,2.41147 1.56141,2.33892 5.8997,-1.58047 z m -383.00434,-31.61504 0,-1 -14.5,0 -14.5,0 0,1 0,1 14.5,0 14.5,0 z m 346.90038,-6.39396 2.24901,-2.39396 -1.30318,-2.08673 c -0.71675,-1.1477 -1.95948,-2.33858 -2.76162,-2.64639 l -1.45844,-0.55965 -2.51005,2.51004 -2.51004,2.51004 0.61132,0.61133 0.61133,0.61132 2.33564,-1.21647 c 1.28461,-0.66907 2.00205,-0.85943 1.59433,-0.42303 l -0.74133,0.79344 1.24133,1.59201 1.24132,1.59201 -1.77417,-1.3925 -1.77416,-1.3925 -0.61834,0.61833 -0.61833,0.61834 1.26494,1.52416 c 1.69419,2.04137 2.28339,1.93722 4.92044,-0.86979 z m -434.92053,-48.07085 0.0569,-45.39442 -1.0184,-0.6294 -1.01839,-0.6294 0,46.61803 0,46.61803 0.96146,-0.59421 0.96146,-0.59422 0.0569,-45.39441 z m 429.8994,39.1046 2.37926,-2.54386 -2.79026,-3.29797 -2.79025,-3.29796 -0.839,0.25 -0.839,0.25 0.25,-1.25 0.25,-1.25 -1.32433,0.27478 -1.32433,0.27477 0.5231,-0.84639 0.52311,-0.8464 -2.19878,-1.91165 c -1.20932,-1.0514 -2.49877,-1.91918 -2.86544,-1.92838 -0.36666,-0.009 -1.04166,-0.42638 -1.5,-0.92706 l -0.83333,-0.91032 1.25,0.71934 1.25,0.71934 0,-0.77219 c 0,-0.42471 -2.41779,-3.26377 -5.37286,-6.30902 -2.95507,-3.04525 -7.42203,-7.78379 -9.92659,-10.5301 l -4.55374,-4.99327 -2.58411,2.42764 -2.5841,2.42765 1.2607,0.80032 1.2607,0.80031 -0.94113,0.0153 -0.94113,0.0153 1.94113,1.57416 c 1.06762,0.86578 1.37727,1.28839 0.68811,0.93912 l -1.25301,-0.63504 0.33857,2.21851 0.33856,2.21851 2.20833,1.78819 c 1.21457,0.9835 2.07607,1.94397 1.91444,2.13438 -0.16163,0.1904 1.68075,2.45295 4.09417,5.02789 l 4.38803,4.68169 0.85051,-0.52564 0.85051,-0.52565 -0.50972,1.32832 -0.50972,1.32831 4.06936,3.97362 c 2.23815,2.1855 4.38518,3.97363 4.77118,3.97363 0.38599,0 0.57054,0.39382 0.41009,0.87516 -0.16045,0.48134 0.4622,1.70823 1.38365,2.72642 l 1.67536,1.85126 0.89113,-0.55075 0.89113,-0.55075 -0.14319,0.82433 c -0.0788,0.45338 -0.0899,1.17766 -0.0248,1.60951 l 0.11842,0.78519 1.75,-0.94336 c 0.9625,-0.51885 2.82066,-2.0881 4.12925,-3.48722 z m -636.879266,-49.05875 0,-21.41896 -1.75,-3.07472 -1.75,-3.07471 -3.25,-0.006 -3.25,-0.007 0,24.5 0,24.5 5,0 5,0 0,-21.41896 z m 5.36706,20.16896 -0.75097,-1.25 1.54067,1.24689 1.54067,1.24689 5.41493,-1.08748 5.41492,-1.08747 1.84658,-1.35025 1.84659,-1.35026 -2.11022,-2.96353 c -1.16063,-1.62994 -2.11023,-3.19842 -2.11023,-3.48551 0,-0.28709 -1.71938,-3.48574 -3.82086,-7.1081 l -3.82086,-6.58613 -0.83946,0.76248 -0.83947,0.76247 0.6525,-1.14184 0.6525,-1.14185 -3.49217,-5.79933 -3.49218,-5.79932 0,18.69117 0,18.69117 1.55902,0 1.55902,0 z m 593.980146,-7.58115 1.65717,-1.83115 -0.75218,-0.82918 -0.75218,-0.82917 1.1809,0.67664 1.1809,0.67663 0.55809,-0.903 0.55809,-0.90301 -1.68095,-1.3633 -1.68095,-1.36331 0.84647,1.40451 0.84647,1.40451 -1.17082,-0.72361 -1.17082,-0.72361 0.48075,-0.77787 0.48075,-0.77788 -2.78377,-2.66703 -2.78378,-2.66702 -0.58053,0.58053 -0.58053,0.58053 -0.75464,-1.22104 -0.75465,-1.22104 1.15451,0.71353 1.15451,0.71352 0,-0.85081 c 0,-0.46794 -1.93986,-2.75464 -4.31081,-5.08154 l -4.3108,-4.23074 -0.84952,0.77253 -0.84952,0.77253 0.73188,-1.27029 0.73188,-1.27029 -5.82155,-6.01243 c -3.20186,-3.30683 -8.52156,-9.11086 -11.82156,-12.89784 l -6,-6.88541 -1.41667,-0.0819 -1.41666,-0.0819 0.66885,-0.66885 0.66884,-0.66885 -1.65717,-1.83115 c -2.11738,-2.33968 -2.48107,-2.30808 -5.74832,0.49938 l -2.7122,2.33053 1.39867,1.16079 1.39868,1.1608 0.81831,-0.74133 0.81832,-0.74132 -0.6308,1.10674 -0.6308,1.10673 10.07312,11.13885 10.07311,11.13884 1.05187,-0.65009 1.05187,-0.65009 -0.71195,1.15197 -0.71196,1.15196 4.19548,4.47625 4.19548,4.47625 1.01648,-0.62821 1.01647,-0.62822 -0.61281,0.99154 -0.6128,0.99154 1.52671,2.1797 1.52672,2.1797 1.08609,-0.67124 1.08609,-0.67124 -0.61895,1.00149 -0.61895,1.00148 2.78377,2.66703 2.78378,2.66702 0.84099,-0.764 0.84099,-0.764 -0.6905,1.20333 -0.6905,1.20333 1.75242,2.04667 c 2.14712,2.50766 2.56333,2.52693 4.65512,0.21552 z m -251.34719,-1.55983 c 0.825,-0.20736 -16.18906,-0.42922 -37.80902,-0.49302 l -39.30901,-0.116 0.46279,0.75 0.4628,0.75 37.34622,-0.25699 c 20.54042,-0.14134 38.02122,-0.42664 38.84622,-0.63399 z m 57.5,0.39098 0.61803,-1 -3.30901,0.0997 -3.30902,0.0997 2.5,0.80064 c 1.375,0.44035 2.58594,0.8455 2.69098,0.90032 0.10504,0.0548 0.4691,-0.35032 0.80902,-0.90032 z m -63.5,-9 0,-5 -4.8,0 -4.8,0 -1.2,-1.2 -1.2,-1.2 0,0.98571 0,0.98572 -1.75,0.11675 c -0.9625,0.0642 -3.34126,0.42891 -5.28612,0.81043 l -3.53613,0.69366 -4.17142,-1.12325 -4.17142,-1.12324 -3.29572,-3.22289 -3.29572,-3.22289 -0.0105,-4.16302 -0.0105,-4.16302 0.76378,0.47204 0.76377,0.47203 0.11842,-1.30901 c 0.0651,-0.71996 0.0276,-1.75902 -0.0833,-2.30902 l -0.20176,-1 0.71725,0.71725 0.71724,0.71724 2.50095,-1.96724 2.50095,-1.96725 1.61514,-0.0153 1.61514,-0.0153 -1.22903,-0.78074 -1.22903,-0.78075 6.72903,0.39397 6.72903,0.39397 2.01222,1.26935 2.01222,1.26934 1.27721,-1.36726 1.2772,-1.36725 4.46058,0 4.46057,0 0,-5.5 0,-5.5 -32.68384,0 -32.68384,0 -4.88343,5.06648 -4.88344,5.06648 1.11584,1.34449 1.11583,1.34449 -1.07334,0.66336 -1.07333,0.66336 0.27477,-1.19933 0.27478,-1.19933 -1.40935,-0.51145 -1.40935,-0.51145 0.6479,1.68839 0.64789,1.68839 -0.91943,-0.56825 -0.91943,-0.56824 -2.70181,2.50396 -2.70181,2.50395 1.18125,1.42332 1.18126,1.42332 -1.20307,0.74354 -1.20307,0.74354 0.67082,-1.08541 0.67082,-1.08541 -0.84485,-0.52215 -0.84485,-0.52215 -3.28803,3.00315 -3.28803,3.00315 0.6079,0.60789 0.60789,0.60789 -1.06444,1.28257 -1.06444,1.28257 -1.42688,-0.54755 -1.42689,-0.54755 0,1.10699 c 0,1.46854 2.88714,4.18514 6.81744,6.41474 l 3.18666,1.80775 1.15246,-0.71226 1.15246,-0.71226 -0.6418,1.03846 -0.6418,1.03845 2.96933,1.22993 2.96933,1.22994 1.5699,-0.60242 1.5699,-0.60243 -0.61096,0.98854 -0.61095,0.98855 2.30901,0.15552 c 1.26996,0.0855 3.3797,0.0594 4.68831,-0.0581 l 2.37929,-0.21364 -0.5979,1.55811 -0.59791,1.55812 33.46861,0 33.46862,0 0,-5 z m 4.57805,-17 -0.0608,-22 -0.70244,0 -0.70245,0 -0.0716,22 -0.0717,22 0.83493,0 0.83492,0 -0.0608,-22 z m 58.92195,10e-4 0,-21.99972 -0.75,-8.1e-4 -0.75,-4.7e-4 0,22 0,22 0.75,5.4e-4 0.75,5.3e-4 0,-21.99972 z m -77.60613,9.05545 1.76239,-0.9432 0.11518,-5.0568 0.11519,-5.0568 -1.19332,-0.0153 -1.19331,-0.0153 1,-0.73468 c 0.55,-0.40408 1.14626,-1.58329 1.32502,-2.62047 l 0.32501,-1.88577 -1.62695,0.62432 -1.62696,0.62432 0.54069,-0.87485 0.5407,-0.87486 -2.23876,-0.60004 c -1.23131,-0.32969 -3.81375,-0.60516 -5.73875,-0.61181 l -3.5,-0.0121 -3.5,1.78167 -3.5,1.78168 0.25,1.21677 0.25,1.21677 -1.25,-0.25 -1.25,-0.25 -0.30149,3.6012 -0.3015,3.60119 3.58629,3.14881 3.58629,3.1488 6.03095,0 6.03094,0 1.76239,-0.9432 z m 13.89366,-8.29537 -0.28753,-9.23858 -1.82909,-0.34998 c -1.00601,-0.19249 -2.91851,-0.0766 -4.25,0.25763 l -2.42091,0.60795 0,8.98095 0,8.98095 4.53753,0 4.53752,0 -0.28752,-9.23857 z m -5.78753,-0.76108 0,-2.14665 1.75,0.33702 1.75,0.33702 0,1.47261 0,1.47261 -1.75,0.33702 -1.75,0.33702 z m -336.000016,-44.90011 0,-28.9001 -3.75,0.1501 -3.75,0.15011 -0.26533,28.75 -0.26534,28.75 4.01534,0 4.01533,0 z m 206.807536,16.40011 0.13158,-3.5 -1.21955,-0.0288 c -0.67075,-0.0159 -46.55697,-0.12835 -101.96937,-0.25 l -100.749826,-0.2212 -1.8e-4,3.75 -1.9e-4,3.75 101.837986,0 101.83797,0 z m 139.94293,-0.19797 -0.28378,-3.69797 -36.98333,0.11563 -36.98334,0.11563 -0.31037,3.58234 -0.31036,3.58234 37.57748,0 37.57748,0 z m 198.05992,0.16541 -0.31037,-3.53255 -70.24994,-0.21745 -70.24993,-0.21744 -7e-5,3.75 -6e-5,3.75 70.56037,0 70.56036,0 z m 7.60074,0.45583 2.58889,-3.07672 0,-4.92328 0,-4.92327 -4,0 -4,0 0,8 0,8 1.41111,0 1.4111,0 z m -247.66625,-36.72646 -0.32628,-9.69681 0.002,20 0.002,20 0.32468,-10.30319 c 0.17857,-5.66676 0.17784,-14.66676 -0.002,-20 z m 34.81617,27.87063 -1.74894,-1.93256 -1.15605,0.26866 c -0.63582,0.14777 -0.84382,0.0884 -0.46222,-0.13204 l 0.69383,-0.40072 -0.54861,-1.42964 -0.54861,-1.42965 -1.04972,0.64876 -1.04973,0.64877 0.62822,-1.01647 0.62821,-1.01648 -4.4737,-4.19309 c -2.46054,-2.3062 -4.47371,-4.61832 -4.47371,-5.13804 l 0,-0.94494 -1.5,0 -1.5,0 0,0.8 c 0,0.44 0.45,1.34 1,2 l 1,1.2 -1.18832,-0.98832 -1.18833,-0.98833 -5.06167,5.67547 c -2.78393,3.12151 -5.88184,6.71625 -6.88426,7.98832 l -1.82258,2.31286 16.22757,0 16.22757,0 z m 6.93897,-64.15099 0,-64.912561 -0.75,-0.0019 -0.75,-0.002 0,65.666671 0,65.66666 0.75,-0.75216 0.75,-0.75216 0,-64.91256 z m -36.5,61.15452 c 0,-0.37628 2.01775,-2.85088 4.4839,-5.4991 l 4.4839,-4.81496 -0.63841,-1.03296 -0.63841,-1.03297 1.02086,0.63093 1.02087,0.63093 1.78863,-1.97642 1.78864,-1.97642 -1.78864,-1.97642 -1.78863,-1.97642 -1.02087,0.63093 -1.02086,0.63093 0.74521,-1.20578 0.74522,-1.20578 -2.84071,-2.67402 c -1.56238,-1.47071 -3.21165,-2.56149 -3.66503,-2.42395 l -0.82433,0.25006 0.54343,-0.87928 0.54342,-0.87928 -2.96909,-3.3256 -2.9691,-3.32561 0,18.30256 0,18.30255 1.5,-1.24489 c 0.825,-0.68469 1.5,-1.55275 1.5,-1.92903 z m 31.50122,-32.90308 -0.54722,-0.54723 -1.71923,2.43967 c -0.94558,1.34182 -1.61023,2.77717 -1.477,3.18967 l 0.24223,0.75 -0.8476,-0.25 -0.8476,-0.25 -5.09716,6.08032 -5.09717,6.08032 4.52861,5.17688 4.52861,5.17688 1.07066,-0.66171 1.07067,-0.66171 -0.76375,1.23577 -0.76375,1.23577 2.85924,2.9862 2.85924,2.9862 0.27423,-17.2099 0.27422,-17.2099 z m 216.46382,4.3127 0.0934,-24.13597 -5.27923,-0.21319 -5.27922,-0.21319 0.13216,20.86266 0.13216,20.86266 1.57796,3.05143 1.57796,3.05144 -0.68029,0.68029 -0.68028,0.68028 4.15598,-0.24522 4.15598,-0.24522 0.0934,-24.13597 z m -224.63153,1.1471 c 2.29157,-2.67977 4.50089,-5.44676 4.90959,-6.14888 l 0.74311,-1.27658 -14.95374,0.0286 -14.95374,0.0286 3.60792,4.403 c 1.98436,2.42164 4.1068,4.72576 4.71655,5.12026 0.60974,0.39449 2.41939,2.47428 4.02144,4.62176 l 2.91282,3.90449 2.41478,-2.90449 c 1.32812,-1.59748 4.28969,-5.09704 6.58127,-7.77681 z m -333.333526,-30.58064 0,-21.95294 -1.16051,-2.54706 -1.16052,-2.54705 -3.83948,0 -3.83949,0 0,24.5 0,24.5 5,0 5,0 z m 342.000016,19.96928 0,-0.98368 -43.5,-0.0105 -43.5,-0.0105 0,0.99414 0,0.99414 43.5,0 43.5,0 0,-0.98367 z m 36.021,-28.35905 c 0.0115,-15.48651 0.0347,-34.682276 0.0515,-42.657276 0.0168,-7.975 0.007,-15.0625 -0.021,-15.75 l -0.0515,-1.250001 -14.5,0 -14.5,0 0,44.036927 0,44.03693 14.5,-0.12965 14.5,-0.12966 z m -36.021,-16.70553 0,-41.951747 -15,0 -15,0 0,41.934097 0,41.93409 15,0.0177 15,0.0177 0,-41.95175 z m -17.78947,40.04825 -9.28948,-0.5 -0.94521,-1.5 -0.94521,-1.5 -0.0153,-32.71607 -0.0153,-32.716073 1.58204,-3.283926 1.58204,-3.283928 2.66796,-2 2.66796,-2 5.70596,0.03432 5.70597,0.03432 2.67291,2.465683 2.67292,2.465683 1.37112,3.217881 1.37112,3.217882 0,31.809608 0,31.80961 -1.47119,2.10042 -1.4712,2.10042 -2.2788,0.37209 c -1.25335,0.20464 -6.45907,0.14708 -11.56828,-0.12792 z m 13.03947,-2.8879 0.75,-0.1121 0,-34.3347 0,-34.334701 -3.13073,-2.789496 -3.13074,-2.789497 -4.6087,0.09251 -4.6087,0.09251 -0.34598,1.037922 -0.34597,1.037923 -0.78094,-0.482649 -0.78095,-0.482649 -1.88364,2.209185 -1.88365,2.209186 1.54713,-0.982767 1.54713,-0.982767 -2.04713,1.861549 -2.04713,1.861549 -0.31317,31.836142 -0.31317,31.83616 1.03899,1.94138 1.039,1.94139 9.77418,-0.27699 c 5.37579,-0.15235 10.11167,-0.32744 10.52417,-0.38909 z m -12.0375,-66.299597 c -0.66687,-0.666875 -1.2125,-1.781667 -1.2125,-2.477316 l 0,-1.264815 1.89499,-1.014172 1.895,-1.01417 1.29702,1.562809 1.29701,1.562809 -1.01345,1.606658 c -0.5574,0.883663 -1.44818,1.751567 -1.97951,1.928678 l -0.96606,0.32202 z m -60.9625,69.481767 c -1.2375,-0.23836 -3.2625,-0.23836 -4.5,0 l -2.25,0.43337 4.5,0 4.5,0 z m -57.29386,-42.36406 -0.0787,-40.930207 -0.93872,0 -0.93872,0 0,41.559017 0,41.55901 1.01742,-0.6288 1.01743,-0.6288 z m 348.04386,-11.43021 0,-40.499997 -4,0 -4,0 0,40.499997 0,40.5 4,0 4,0 z M 58.194944,84.366533 l 0,-24.5 -4,0 -4,0 0,24.5 0,24.499997 4,0 4,0 z m 411.000016,2 0,-14.5 -1.25,-0.08135 c -1.22954,-0.08002 -23.5816,-0.04929 -27,0.03712 l -1.75,0.04423 0,14.5 0,14.499997 15,0 15,0 z m 95.77746,-0.25 0.27745,-14.25 -1.02745,-0.01493 c -0.5651,-0.0082 -15.08996,-0.02203 -32.27746,-0.0307 l -31.25,-0.01578 -0.2268,14.544527 -0.22679,14.54452 32.22679,-0.26382 32.2268,-0.26382 z M 363.94496,98.937001 c 0.1375,-0.0388 0.25,-0.547026 0.25,-1.129485 l 0,-1.059017 -1.10373,0.682141 -1.10372,0.68214 1.85372,-2.834447 1.85373,-2.834447 -1,0.615832 -1,0.615832 0,-10.404509 0,-10.404508 0.80902,0 0.80901,0 -0.61803,-1 -0.61803,-1 -48.44099,0 -48.44098,0 0,13.98949 0,13.989488 43.75,0.29222 c 36.92297,0.24662 51.61025,0.191 53,-0.20073 z m -25.86765,-7.95282 -3.88235,-3.882354 0,-3.149766 0,-3.149765 1.44897,-3.467882 c 0.79694,-1.907334 1.80944,-3.502677 2.25,-3.545205 0.44057,-0.04253 5.25434,-0.122684 10.69728,-0.178122 l 9.89624,-0.100797 0.49308,2.928121 c 1.49657,8.887277 0.75847,12.033675 -3.67307,15.657809 l -3.38751,2.770313 -4.98014,0 -4.98014,0 z m 14.53632,-2.232332 2.68839,-2.114687 -0.30353,-3.635313 -0.30353,-3.635316 -3.15451,0 -3.15451,0 0.62639,1 c 0.34451,0.55 0.70596,1.523201 0.80321,2.162667 l 0.17682,1.162666 -2.9307,-1.021647 -2.9307,-1.021646 1.21858,-1.468294 1.21857,-1.468294 -3.43657,0.327274 -3.43658,0.327274 -0.30353,3.635316 -0.30353,3.635313 2.68839,2.114687 2.68839,2.114684 2.73028,0 2.73028,0 z m 3.94296,-11.385316 -0.57561,-1.5 -7.64301,0.19586 -7.64301,0.195861 7,0.355065 7,0.355065 0.95,0.949075 c 1.33372,1.33242 1.57774,1.184948 0.91163,-0.550926 z m 141.39674,12.450381 0.25838,-9.450381 -0.94239,1.452254 -0.94239,1.452254 0.58852,0.952255 0.58853,0.952254 -1.0706,-0.661662 -1.07059,-0.661663 -2.58391,0.982403 -2.58392,0.982403 0,-1.082238 0,-1.082238 -1.488,0.571001 -1.48801,0.571001 0.10643,-0.714012 c 0.0585,-0.392707 0.0531,-1.30307 -0.012,-2.023029 l -0.11842,-1.309016 -0.85554,0.528755 -0.85555,0.528754 0.46629,-2.439198 0.46628,-2.439198 1.38926,-1.152984 c 0.76409,-0.634142 1.38926,-1.660385 1.38926,-2.280541 l 0,-1.127555 -5,0 -5,0 0,0.75 c 0,0.4125 0.45965,0.75 1.02144,0.75 l 1.02144,0 1.13722,2.495938 1.13723,2.495937 -1.81365,2.004063 -1.81366,2.004062 -1.59501,-0.0318 c -0.87725,-0.01749 -2.38251,-0.6296 -3.34501,-1.360243 l -1.75,-1.328439 0,-2.116705 0,-2.116704 2.53121,-1.658511 2.53121,-1.658512 -0.5,-0.5 c -0.275,-0.275 -1.6255,0.237453 -3.0011,1.138783 l -2.5011,1.638784 0.63983,-1.66737 0.63983,-1.66737 -1.20967,0.747617 -1.20967,0.747617 0.17347,12.666428 c 0.0954,6.966535 0.30007,12.899123 0.45481,13.183533 0.15474,0.28441 6.05705,0.48708 13.11626,0.45038 l 12.83492,-0.0667 0.25837,-9.450381 z m -22.46071,7.65663 0.20234,-1.107011 -1.32433,0.274777 -1.32433,0.274777 0.63335,-1.024777 0.63334,-1.024777 -0.92784,0 -0.92784,0 0.36929,-3.171779 0.3693,-3.171781 1.65452,-1.828219 1.65452,-1.828221 1.91075,0 c 1.05091,0 2.75714,0.452975 3.79162,1.006612 l 1.88087,1.006609 1.02298,-1.756609 1.02298,-1.756612 0.0304,1.083333 c 0.0167,0.595834 -0.28876,1.402503 -0.67885,1.792598 l -0.70927,0.709265 0.22773,3.707402 0.22772,3.707402 -0.8967,1.362009 -0.89671,1.362009 -4.07409,0.745002 -4.07409,0.744998 z m 5.76808,-2.642195 1.93426,-1.035184 0,-1.523832 0,-1.523833 -1.25,0.750975 -1.25,0.750975 1.36414,-1.681957 1.36415,-1.681958 -2.36415,-0.891834 -2.36414,-0.891835 -1.75,0.917018 -1.75,0.917018 0,2.264815 0,2.264816 1.2,1.2 c 1.46916,1.469158 2.37145,1.499721 4.86574,0.164816 z m 7.97994,-0.409774 -1.19921,-1.444958 0.32677,-2.190443 0.32676,-2.190443 2,-1.314305 2,-1.314306 2.36446,1.790343 2.36445,1.790344 -0.69391,3.159363 -0.69391,3.159363 -2.7981,0 -2.7981,0 z m 5.26919,-1.933187 0.52884,-1.378145 -1.12185,-1.121855 c -1.53703,-1.53703 -2.39821,-1.407669 -3.11812,0.468388 l -0.61023,1.590242 0.56226,0.909758 c 0.30925,0.500366 1.16256,0.909757 1.89626,0.909757 l 1.33399,0 z m -126.60761,-1.860196 -0.4349,-2.261659 -0.0202,4 -0.0202,4 0.45508,-1.738341 c 0.25029,-0.956087 0.25937,-2.756087 0.0202,-4 z m 127.30866,-9.280844 1.14932,-1.384839 -0.62069,-1.955607 -0.62068,-1.955607 -1.48462,-0.5697 -1.48461,-0.5697 -1.98254,1.982535 -1.98253,1.982536 1.11818,1.790488 1.11817,1.790489 1.82035,0.137122 1.82034,0.137122 z m -15.37886,-3.184823 0.32024,-2.0984 -1.40554,-0.539355 -1.40553,-0.539355 -1.19556,1.440559 -1.19556,1.440559 1.27253,1.533305 1.27253,1.533305 1.00832,-0.336108 1.00833,-0.336107 z m 18.36294,-3.462659 0,-2.166666 -0.63148,0.631483 -0.63149,0.631482 -1.86851,-1 -1.86852,-1 0,0.967798 0,0.967796 2,0.634775 2,0.634775 0,0.932613 c 0,0.512936 0.225,0.932611 0.5,0.932611 0.275,0 0.5,-0.974999 0.5,-2.166667 z m 105,-10.833333 0,-4 -271,0 -271.000016,0 0,4 0,4 271.000016,0 271,0 z"
     id="path4115"
     style="fill:#000000" />
</svg>
